<?xml version="1.0" encoding="UTF-8" standalone="no"?>
<!DOCTYPE svg PUBLIC "-//W3C//DTD SVG 1.1//EN" "http://www.w3.org/Graphics/SVG/1.1/DTD/svg11.dtd">
<svg width="100%" height="100%" viewBox="0 0 856 526" version="1.1" xmlns="http://www.w3.org/2000/svg" xmlns:xlink="http://www.w3.org/1999/xlink" xml:space="preserve" xmlns:serif="http://www.serif.com/" style="fill-rule:evenodd;clip-rule:evenodd;stroke-linecap:round;stroke-linejoin:round;stroke-miterlimit:1.5;">
    <g transform="matrix(1,0,0,1,-812.60637,-562.595707)">
        <g transform="matrix(2.497123,0,0,1.870743,-56.029618,-1604.796134)">
            <path d="M522.298,1169.102C614.206,1129.665 690.123,1210.473 690.123,1291.807C690.123,1373.141 613.478,1439.174 519.072,1439.174C424.667,1439.174 348.022,1373.141 348.022,1291.807C348.022,1210.473 435.542,1206.328 522.298,1169.102ZM519.072,1218.124C566.275,1218.124 625.396,1201.708 640.496,1239.468C651.512,1267.014 683.083,1321.523 615.809,1372.644C553.849,1419.727 467.976,1376.128 418.946,1338.51C369.644,1300.685 417.917,1293.865 440.31,1258.926C462.254,1224.688 471.869,1218.124 519.072,1218.124Z" style="fill:rgb(252,255,253);stroke:rgb(0,8,0);stroke-width:0.38px;"/>
        </g>
    </g>
</svg>
